<?xml version="1.0" encoding="UTF-8"?>
<svg width="200px" height="50px" viewBox="0 0 200 50" version="1.1" xmlns="http://www.w3.org/2000/svg" xmlns:xlink="http://www.w3.org/1999/xlink">
    <!-- Generator: Sketch 52.3 (67297) - http://www.bohemiancoding.com/sketch -->
    <title>Logo/small/mark+payoff/dark@3x</title>
    <desc>Created with Sketch.</desc>
    <g id="Logo/small/mark+payoff/dark" stroke="none" stroke-width="1" fill="none" fill-rule="evenodd">
        <path d="M191.597655,42.8028846 C191.191106,42.2605769 190.51277,41.8538462 189.698316,41.8538462 C188.43209,41.8538462 187.573317,42.8932692 187.573317,44.0230769 C187.573317,45.1980769 188.477764,46.1923077 189.788761,46.1923077 C190.467096,46.1923077 191.145431,45.8759615 191.597655,45.2432692 L191.597655,42.8028846 Z M191.643329,46.7346154 C191.100209,47.2317308 190.376651,47.5028846 189.608323,47.5028846 C189.019981,47.5028846 188.386868,47.3221154 187.934644,47.0509615 C186.939752,46.4639135 186.261417,45.3788462 186.261417,44.0230769 C186.261417,42.7125 186.984975,41.5826923 187.979866,40.9951923 C188.43209,40.7240385 188.974758,40.5889135 189.608323,40.5889135 C190.376651,40.5889135 191.054986,40.814875 191.688099,41.3567308 L191.688099,40.7692308 L193,40.7692308 L193,47.3677596 L191.688099,47.3677596 L191.688099,46.7346154 L191.643329,46.7346154 Z M185.35697,41.8990385 C185.221303,41.8538462 185.040413,41.8538462 184.814301,41.8538462 C184.135966,41.8538462 183.412408,42.3509615 183.005407,42.9836538 L183.005407,47.3677596 L181.648737,47.3677596 L181.648737,40.7240385 L182.960185,40.7240385 L182.960185,41.4927596 C183.277194,41.0408365 183.955529,40.5889135 184.949969,40.5889135 C185.086088,40.5889135 185.3122,40.5889135 185.492637,40.6336538 L185.35697,41.8990385 Z M173.689602,46.3730769 C173.282601,45.8759615 173.102164,45.1980769 173.102164,44.1134615 L173.102164,40.7240385 L174.458834,40.7240385 L174.458834,44.2942308 C174.458834,44.9721154 174.594049,45.3341058 174.820161,45.6048077 C175.13717,45.9663462 175.589393,46.1923077 176.086387,46.1923077 C176.900389,46.1923077 177.578725,45.6951923 177.940503,45.2432692 L177.940503,40.7240385 L179.297174,40.7240385 L179.297174,47.3221154 L177.985726,47.3221154 L177.985726,46.7346154 C177.669169,47.0057692 176.946064,47.5028846 176.041617,47.5028846 C175.091495,47.5028846 174.232723,47.0509615 173.689602,46.3730769 Z M171.428484,47.3677596 C171.15715,47.4576923 170.750149,47.5028846 170.388822,47.5028846 C169.574368,47.5028846 168.941255,47.1865385 168.534254,46.7346154 C168.127705,46.2826923 167.991585,45.6951923 167.991585,44.9721154 L167.991585,41.9446827 L166.31881,41.9446827 L166.31881,40.7692308 L167.991585,40.7692308 L167.991585,38.9615385 L169.348256,38.9615385 L169.348256,40.7692308 L171.473707,40.7692308 L171.473707,41.9446827 L169.303034,41.9446827 L169.303034,45.0625 C169.303034,45.4240385 169.348256,45.6951923 169.484375,45.9211538 C169.664812,46.1471154 170.026591,46.2826923 170.388822,46.2826923 C170.569259,46.2826923 170.931038,46.2379519 171.111928,46.1923077 L171.428484,47.3677596 Z M165.368689,47.3677596 C165.097354,47.4576923 164.690353,47.5028846 164.328574,47.5028846 C163.514572,47.5028846 162.881459,47.1865385 162.47491,46.7346154 C162.067457,46.2826923 161.93179,45.6951923 161.93179,44.9721154 L161.93179,41.9446827 L160.258562,41.9446827 L160.258562,40.7692308 L161.93179,40.7692308 L161.93179,38.9615385 L163.28846,38.9615385 L163.28846,40.7692308 L165.414363,40.7692308 L165.414363,41.9446827 L163.28846,41.9446827 L163.28846,45.0625 C163.28846,45.4240385 163.333683,45.6951923 163.46935,45.9211538 C163.650239,46.1471154 164.012018,46.2826923 164.373797,46.2826923 C164.554686,46.2826923 164.916465,46.2379519 165.097354,46.1923077 L165.368689,47.3677596 Z M154.424879,43.2096154 L158.042667,43.2096154 C157.861778,42.3509615 157.092998,41.7634615 156.278995,41.7634615 C155.41977,41.7634615 154.65099,42.3509615 154.424879,43.2096154 Z M154.334886,44.3394231 C154.424879,45.4692308 155.329326,46.3278846 156.459885,46.3278846 C157.454776,46.3278846 157.997445,45.8307692 158.359224,45.4240385 L159.218448,46.2379519 C158.721002,46.8701923 157.771333,47.4576923 156.414662,47.4576923 C154.470101,47.4576923 152.978215,46.0119904 152.978215,44.0230769 C152.978215,42.0346154 154.334886,40.5889135 156.18855,40.5889135 C158.042667,40.5889135 159.354115,42.0798077 159.354115,44.0230769 L159.354115,44.2942308 L154.334886,44.2942308 L154.334886,44.3394231 Z M151.982871,47.3677596 C151.711537,47.4576923 151.304536,47.5028846 150.943209,47.5028846 C150.128755,47.5028846 149.495642,47.1865385 149.088641,46.7346154 C148.682092,46.2826923 148.545972,45.6951923 148.545972,44.9721154 L148.545972,41.9446827 L146.873197,41.9446827 L146.873197,40.7692308 L148.545972,40.7692308 L148.545972,38.9615385 L149.902643,38.9615385 L149.902643,40.7692308 L152.028094,40.7692308 L152.028094,41.9446827 L149.857421,41.9446827 L149.857421,45.0625 C149.857421,45.4240385 149.902643,45.6951923 150.038762,45.9211538 C150.2192,46.1471154 150.580978,46.2826923 150.943209,46.2826923 C151.123647,46.2826923 151.485426,46.2379519 151.666315,46.1923077 L151.982871,47.3677596 Z M144.159856,47.3221154 L145.516527,47.3221154 L145.516527,40.7240385 L144.159856,40.7240385 L144.159856,47.3221154 Z M144.838191,37.5153846 C145.335185,37.5153846 145.742639,37.9221154 145.742639,38.4192308 C145.742639,38.9163462 145.335185,39.2778846 144.838191,39.2778846 C144.340293,39.2778846 143.978515,38.9163462 143.978515,38.4192308 C143.978515,37.9221154 144.340293,37.5153846 144.838191,37.5153846 Z M136.924279,41.3115385 C137.285606,40.9951923 137.963941,40.5889135 138.868388,40.5889135 C139.818058,40.5889135 140.722505,41.0408365 141.265173,41.7634615 C141.672627,42.3057692 141.898738,42.9836538 141.898738,44.1134615 L141.898738,47.3677596 L140.542068,47.3677596 L140.542068,44.0230769 C140.542068,43.1644231 140.405948,42.8028846 140.134614,42.4865385 C139.818058,42.0798077 139.320612,41.8538462 138.777944,41.8538462 C137.918719,41.8538462 137.285606,42.3057692 136.878605,42.8028846 L136.878605,47.3677596 L135.521934,47.3677596 L135.521934,37.3346154 L136.878605,37.3346154 L136.878605,41.3115385 L136.924279,41.3115385 Z M134.029596,45.9211538 C133.486928,46.825 132.311147,47.4576923 131.090143,47.4576923 C129.055137,47.4576923 127.5628,45.9663462 127.5628,44.0230769 C127.5628,42.0798077 129.010367,40.5889135 130.999699,40.5889135 C132.175932,40.5889135 133.215594,41.1759615 133.803485,42.0346154 L132.808593,42.8485288 C132.446814,42.3509615 131.813701,41.8538462 130.999699,41.8538462 C129.823917,41.8538462 128.874248,42.8028846 128.874248,44.0230769 C128.874248,45.3341058 129.823917,46.1923077 131.090143,46.1923077 C131.94982,46.1923077 132.582481,45.7403846 132.989482,45.1528846 L134.029596,45.9211538 Z M126.61313,41.8990385 C126.477463,41.8538462 126.297026,41.8538462 126.070914,41.8538462 C125.392579,41.8538462 124.668569,42.3509615 124.26202,42.9836538 L124.26202,47.3677596 L122.905349,47.3677596 L122.905349,40.7240385 L124.216345,40.7240385 L124.216345,41.4927596 C124.532902,41.0408365 125.211237,40.5889135 126.206129,40.5889135 C126.341796,40.5889135 126.567908,40.5889135 126.749249,40.6336538 L126.61313,41.8990385 Z M115.578875,43.4807692 L118.609225,43.4807692 L117.071213,39.8201923 L115.578875,43.4807692 Z M119.196664,44.7913462 L115.036207,44.7913462 L113.996093,47.3221154 L112.548978,47.3221154 L116.618989,37.4701923 L117.613881,37.4701923 L121.683893,47.3221154 L120.236778,47.3221154 L119.196664,44.7913462 Z M162.836237,26.2173077 C162.429236,25.6754519 161.7509,25.2682692 160.936898,25.2682692 C159.670672,25.2682692 158.811447,26.3076923 158.811447,27.4375 C158.811447,28.6129519 159.715894,29.6067308 161.027343,29.6067308 C161.705678,29.6067308 162.384013,29.2908365 162.836237,28.6576923 L162.836237,26.2173077 Z M162.881459,30.1490385 C162.338791,30.6466058 161.615233,30.9173077 160.846453,30.9173077 C160.258562,30.9173077 159.625449,30.7365385 159.173226,30.4653846 C158.178786,29.8778846 157.500451,28.7932692 157.500451,27.4375 C157.500451,26.127375 158.223556,24.9971154 159.218448,24.4096154 C159.670672,24.1384615 160.213792,24.0028846 160.846453,24.0028846 C161.615233,24.0028846 162.293568,24.2288462 162.927134,24.7711538 L162.927134,24.1384615 L164.23813,24.1384615 L164.23813,30.7365385 L162.927134,30.7365385 L162.927134,30.1490385 L162.881459,30.1490385 Z M154.289212,30.7365385 L155.645882,30.7365385 L155.645882,24.1384615 L154.289212,24.1384615 L154.289212,30.7365385 Z M154.967547,20.9298077 C155.465445,20.9298077 155.871994,21.3365385 155.871994,21.8336538 C155.871994,22.3307692 155.465445,22.6923077 154.967547,22.6923077 C154.470101,22.6923077 154.108774,22.3307692 154.108774,21.8336538 C154.0631,21.2913462 154.470101,20.9298077 154.967547,20.9298077 Z M150.671423,25.3586538 L147.234524,25.3586538 L147.234524,24.1384615 L152.525992,24.1384615 L152.525992,24.9971154 L148.908203,29.5615385 L152.842096,29.5615385 L152.842096,30.7365385 L147.053635,30.7365385 L147.053635,29.8778846 L150.671423,25.3586538 Z M140.360726,24.7711538 C140.722505,24.4548077 141.40084,24.0028846 142.350962,24.0028846 C143.300179,24.0028846 144.204626,24.4548077 144.747295,25.1778846 C145.154296,25.7201923 145.380408,26.3980769 145.380408,27.5278846 L145.380408,30.7817308 L144.023737,30.7817308 L144.023737,27.4831442 C144.023737,26.6240385 143.88807,26.2625 143.616736,25.9461538 C143.300179,25.5394231 142.803186,25.3134615 142.260065,25.3134615 C141.40084,25.3134615 140.76818,25.7653846 140.360726,26.2625 L140.360726,30.8269231 L139.004055,30.8269231 L139.004055,24.1384615 L140.315956,24.1384615 L140.315956,24.7711538 L140.360726,24.7711538 Z M132.265924,26.6240385 L135.883713,26.6240385 C135.702823,25.7653846 134.934043,25.1778846 134.120041,25.1778846 C133.260816,25.1778846 132.492036,25.7653846 132.265924,26.6240385 Z M132.130257,27.7538462 C132.220702,28.8836538 133.125149,29.7427596 134.255708,29.7427596 C135.2506,29.7427596 135.79372,29.2451923 136.155047,28.8389135 L137.014272,29.6519231 C136.516826,30.2846154 135.567609,30.8725673 134.210938,30.8725673 C132.265924,30.8725673 130.773587,29.4259615 130.773587,27.4375 C130.773587,25.4494904 132.130257,24.0028846 133.984826,24.0028846 C135.838491,24.0028846 137.150391,25.4942308 137.150391,27.4375 L137.150391,27.7091058 L132.130257,27.7091058 L132.130257,27.7538462 Z M127.698467,26.2173077 C127.291465,25.6754519 126.61313,25.2682692 125.799128,25.2682692 C124.532902,25.2682692 123.673677,26.3076923 123.673677,27.4375 C123.673677,28.6129519 124.578124,29.6067308 125.889572,29.6067308 C126.567908,29.6067308 127.246243,29.2908365 127.698467,28.6576923 L127.698467,26.2173077 Z M125.663461,30.9173077 C125.07557,30.9173077 124.442457,30.7365385 123.990233,30.4653846 C122.995342,29.8778846 122.317006,28.7932692 122.317006,27.4375 C122.317006,26.127375 123.040564,24.9971154 124.035908,24.4096154 C124.488132,24.1384615 125.030348,24.0028846 125.663461,24.0028846 C126.432241,24.0028846 127.110576,24.2288462 127.743689,24.7711538 L127.743689,24.1384615 L129.055137,24.1384615 L129.055137,30.4653846 C129.055137,31.4596154 128.91947,32.0923077 128.648136,32.6346154 C128.10592,33.6740385 127.110576,34.2619904 125.799128,34.2619904 C124.080678,34.2619904 122.995342,33.4028846 122.58834,32.725 L123.583684,31.8211538 C124.080678,32.4542981 124.668569,32.9961538 125.753905,32.9961538 C126.477463,32.9961538 127.020131,32.725 127.38191,32.2283365 C127.608022,31.8663462 127.743689,31.3692308 127.743689,30.5105769 L127.743689,30.1490385 C127.155798,30.6466058 126.477463,30.9173077 125.663461,30.9173077 Z M115.578875,26.8951923 L118.609225,26.8951923 L117.071213,23.2346154 L115.578875,26.8951923 Z M119.196664,28.2509615 L115.036207,28.2509615 L113.996093,30.7817308 L112.548978,30.7817308 L116.618989,20.9298077 L117.613881,20.9298077 L121.683893,30.7817308 L120.236778,30.7817308 L119.196664,28.2509615 Z M52.3128001,47.3221154 L56.2923674,47.3221154 L58.5987075,21.1105769 L64.4323914,21.1105769 L66.7387315,47.3221154 L80.034104,47.3221154 L82.2952217,21.1105769 L88.174128,21.1105769 L90.4352457,47.3221154 L94.3695906,47.3221154 L91.746694,17.5855769 L78.6774333,17.5855769 L76.3710932,43.7971154 L70.3112976,43.7971154 L68.0049574,17.5855769 L54.9356967,17.5855769 L52.3128001,47.3221154 Z M7,47.3221154 L16.9489182,47.3221154 L16.9489182,43.7971154 L10.7534555,43.7971154 L10.7534555,1 L7,1 L7,47.3221154 Z M33.4098556,20.4326923 C38.5652041,20.4326923 42.6352161,24.1384615 43.4039961,29.3807692 L23.0991585,29.3807692 C24.1844951,24.2288462 28.11884,20.4326923 33.4098556,20.4326923 Z M46.2530045,42.4865385 L43.6301079,40.0009615 C41.2785454,42.8932692 38.0225358,44.4302596 34.0881909,44.4302596 C27.2143929,44.4302596 23.0991585,39.0971154 22.8730467,32.725 L47.202674,32.725 C47.2478963,32.1375 47.2478963,31.6855769 47.2478963,31.4144231 C47.2478963,23.1442308 41.3689901,16.8625 33.4098556,16.8625 C24.9984975,16.9076923 19.1648136,23.9125 19.1648136,32.4542981 C19.1648136,41.7187212 25.7672775,48 34.1334132,48 C39.7862077,48 44.0371091,45.3341058 46.2530045,42.4865385 Z" id="Fill-1" fill="#444549"></path>
    </g>
</svg>