<?xml version="1.0" encoding="UTF-8"?>
<svg width="514px" height="130px" viewBox="0 0 514 130" version="1.1" xmlns="http://www.w3.org/2000/svg" xmlns:xlink="http://www.w3.org/1999/xlink">
    <!-- Generator: Sketch 52.3 (67297) - http://www.bohemiancoding.com/sketch -->
    <title>Logo/big/mark+payoff/white@3x</title>
    <desc>Created with Sketch.</desc>
    <g id="Logo/big/mark+payoff/white" stroke="none" stroke-width="1" fill="none" fill-rule="evenodd">
        <path d="M495.350887,112.509615 C494.292985,111.101923 492.527854,110.046154 490.408521,110.046154 C487.11361,110.046154 484.878955,112.744231 484.878955,115.676923 C484.878955,118.726923 487.232462,121.307692 490.643872,121.307692 C492.409002,121.307692 494.174133,120.486538 495.350887,118.844231 L495.350887,112.509615 Z M495.469739,122.715385 C494.056457,124.005769 492.173651,124.709615 490.174347,124.709615 C488.64339,124.709615 486.995935,124.240385 485.819181,123.536538 C483.230323,122.012712 481.465192,119.196154 481.465192,115.676923 C481.465192,112.275 483.347998,109.342308 485.936856,107.817308 C487.11361,107.113462 488.525715,106.762712 490.174347,106.762712 C492.173651,106.762712 493.938782,107.34925 495.586237,108.755769 L495.586237,107.230769 L499,107.230769 L499,124.358865 L495.586237,124.358865 L495.586237,122.715385 L495.469739,122.715385 Z M479.111685,110.163462 C478.758659,110.046154 478.287957,110.046154 477.69958,110.046154 C475.934449,110.046154 474.051643,111.336538 472.992565,112.978846 L472.992565,124.358865 L469.462304,124.358865 L469.462304,107.113462 L472.87489,107.113462 L472.87489,109.108865 C473.699794,107.935788 475.464925,106.762712 478.052606,106.762712 C478.406809,106.762712 478.995186,106.762712 479.464711,106.878846 L479.111685,110.163462 Z M448.751438,121.776923 C447.692359,120.486538 447.222834,118.726923 447.222834,115.911538 L447.222834,107.113462 L450.753096,107.113462 L450.753096,116.380769 C450.753096,118.140385 451.104945,119.080019 451.693322,119.782692 C452.518226,120.721154 453.69498,121.307692 454.988232,121.307692 C457.106389,121.307692 458.87152,120.017308 459.812923,118.844231 L459.812923,107.113462 L463.343184,107.113462 L463.343184,124.240385 L459.930598,124.240385 L459.930598,122.715385 C459.106871,123.419231 457.225241,124.709615 454.871734,124.709615 C452.399374,124.709615 450.164719,123.536538 448.751438,121.776923 Z M442.867669,124.358865 C442.161616,124.592308 441.102538,124.709615 440.162312,124.709615 C438.042978,124.709615 436.395523,123.888462 435.336445,122.715385 C434.278543,121.542308 433.92434,120.017308 433.92434,118.140385 L433.92434,110.281942 L429.571528,110.281942 L429.571528,107.230769 L433.92434,107.230769 L433.92434,102.538462 L437.454601,102.538462 L437.454601,107.230769 L442.985344,107.230769 L442.985344,110.281942 L437.336926,110.281942 L437.336926,118.375 C437.336926,119.313462 437.454601,120.017308 437.808804,120.603846 C438.278329,121.190385 439.219732,121.542308 440.162312,121.542308 C440.631837,121.542308 441.57324,121.426173 442.043941,121.307692 L442.867669,124.358865 Z M427.099168,124.358865 C426.393116,124.592308 425.334038,124.709615 424.392635,124.709615 C422.274478,124.709615 420.627023,123.888462 419.569121,122.715385 C418.508866,121.542308 418.15584,120.017308 418.15584,118.140385 L418.15584,110.281942 L413.801851,110.281942 L413.801851,107.230769 L418.15584,107.230769 L418.15584,102.538462 L421.686101,102.538462 L421.686101,107.230769 L427.21802,107.230769 L427.21802,110.281942 L421.686101,110.281942 L421.686101,118.375 C421.686101,119.313462 421.803776,120.017308 422.156802,120.603846 C422.627504,121.190385 423.568907,121.542308 424.51031,121.542308 C424.981011,121.542308 425.922414,121.426173 426.393116,121.307692 L427.099168,124.358865 Z M398.621727,113.565385 L408.035757,113.565385 C407.565056,111.336538 405.564574,109.811538 403.446418,109.811538 C401.210585,109.811538 399.210104,111.336538 398.621727,113.565385 Z M398.387553,116.498077 C398.621727,119.430769 400.975235,121.659615 403.917119,121.659615 C406.505977,121.659615 407.918082,120.369231 408.859485,119.313462 L411.095317,121.426173 C409.800888,123.067308 407.329705,124.592308 403.799444,124.592308 C398.739403,124.592308 394.857292,120.839635 394.857292,115.676923 C394.857292,110.515385 398.387553,106.762712 403.211067,106.762712 C408.035757,106.762712 411.448343,110.632692 411.448343,115.676923 L411.448343,116.380769 L398.387553,116.380769 L398.387553,116.498077 Z M392.267257,124.358865 C391.561205,124.592308 390.502126,124.709615 389.5619,124.709615 C387.442566,124.709615 385.795111,123.888462 384.736033,122.715385 C383.678131,121.542308 383.323928,120.017308 383.323928,118.140385 L383.323928,110.281942 L378.971116,110.281942 L378.971116,107.230769 L383.323928,107.230769 L383.323928,102.538462 L386.85419,102.538462 L386.85419,107.230769 L392.384932,107.230769 L392.384932,110.281942 L386.736514,110.281942 L386.736514,118.375 C386.736514,119.313462 386.85419,120.017308 387.208392,120.603846 C387.677917,121.190385 388.61932,121.542308 389.5619,121.542308 C390.031425,121.542308 390.972828,121.426173 391.443529,121.307692 L392.267257,124.358865 Z M371.910593,124.240385 L375.440855,124.240385 L375.440855,107.113462 L371.910593,107.113462 L371.910593,124.240385 Z M373.675724,98.7846154 C374.968976,98.7846154 376.029232,99.8403846 376.029232,101.130769 C376.029232,102.421154 374.968976,103.359615 373.675724,103.359615 C372.380118,103.359615 371.438715,102.421154 371.438715,101.130769 C371.438715,99.8403846 372.380118,98.7846154 373.675724,98.7846154 Z M353.082533,108.638462 C354.022759,107.817308 355.78789,106.762712 358.141398,106.762712 C360.612581,106.762712 362.966088,107.935788 364.378193,109.811538 C365.438448,111.219231 366.026825,112.978846 366.026825,115.911538 L366.026825,124.358865 L362.496563,124.358865 L362.496563,115.676923 C362.496563,113.448077 362.14236,112.509615 361.436308,111.688462 C360.612581,110.632692 359.318151,110.046154 357.906047,110.046154 C355.670215,110.046154 354.022759,111.219231 352.963681,112.509615 L352.963681,124.358865 L349.43342,124.358865 L349.43342,98.3153846 L352.963681,98.3153846 L352.963681,108.638462 L353.082533,108.638462 Z M345.550132,120.603846 C344.138028,122.95 341.078468,124.592308 337.901233,124.592308 C332.605841,124.592308 328.722554,120.721154 328.722554,115.676923 C328.722554,110.632692 332.489342,106.762712 337.665882,106.762712 C340.726619,106.762712 343.431976,108.286538 344.961756,110.515385 L342.372897,112.628096 C341.431494,111.336538 339.784039,110.046154 337.665882,110.046154 C334.606322,110.046154 332.135139,112.509615 332.135139,115.676923 C332.135139,119.080019 334.606322,121.307692 337.901233,121.307692 C340.138242,121.307692 341.78452,120.134615 342.843599,118.609615 L345.550132,120.603846 Z M326.251371,110.163462 C325.898345,110.046154 325.42882,110.046154 324.840443,110.046154 C323.075312,110.046154 321.191329,111.336538 320.133428,112.978846 L320.133428,124.358865 L316.603167,124.358865 L316.603167,107.113462 L320.014576,107.113462 L320.014576,109.108865 C320.838303,107.935788 322.603434,106.762712 325.192292,106.762712 C325.545318,106.762712 326.133695,106.762712 326.605574,106.878846 L326.251371,110.163462 Z M297.538579,114.269231 L305.424006,114.269231 L301.421866,104.767308 L297.538579,114.269231 Z M306.952609,117.671154 L296.126474,117.671154 L293.419941,124.240385 L289.654329,124.240385 L300.245112,98.6673077 L302.833971,98.6673077 L313.424755,124.240385 L309.659143,124.240385 L306.952609,117.671154 Z M420.509347,69.4576923 C419.450269,68.0511731 417.685138,66.9942308 415.566981,66.9942308 C412.272071,66.9942308 410.036239,69.6923077 410.036239,72.625 C410.036239,75.6761731 412.389746,78.2557692 415.802332,78.2557692 C417.567463,78.2557692 419.332593,77.4357885 420.509347,75.7923077 L420.509347,69.4576923 Z M420.627023,79.6634615 C419.214918,80.9550192 417.332112,81.6576923 415.331631,81.6576923 C413.801851,81.6576923 412.154395,81.1884615 410.977642,80.4846154 C408.38996,78.9596154 406.62483,76.1442308 406.62483,72.625 C406.62483,69.22425 408.506459,66.2903846 411.095317,64.7653846 C412.272071,64.0615385 413.685352,63.7096154 415.331631,63.7096154 C417.332112,63.7096154 419.097243,64.2961538 420.745875,65.7038462 L420.745875,64.0615385 L424.157284,64.0615385 L424.157284,81.1884615 L420.745875,81.1884615 L420.745875,79.6634615 L420.627023,79.6634615 Z M398.268701,81.1884615 L401.798962,81.1884615 L401.798962,64.0615385 L398.268701,64.0615385 L398.268701,81.1884615 Z M400.033832,55.7326923 C401.329438,55.7326923 402.387339,56.7884615 402.387339,58.0788462 C402.387339,59.3692308 401.329438,60.3076923 400.033832,60.3076923 C398.739403,60.3076923 397.799176,59.3692308 397.799176,58.0788462 C397.680324,56.6711538 398.739403,55.7326923 400.033832,55.7326923 Z M388.854671,67.2288462 L379.911342,67.2288462 L379.911342,64.0615385 L393.680538,64.0615385 L393.680538,66.2903846 L384.266508,78.1384615 L394.503089,78.1384615 L394.503089,81.1884615 L379.440641,81.1884615 L379.440641,78.9596154 L388.854671,67.2288462 Z M362.024685,65.7038462 C362.966088,64.8826923 364.731219,63.7096154 367.203578,63.7096154 C369.673585,63.7096154 372.027092,64.8826923 373.439197,66.7596154 C374.498275,68.1673077 375.086652,69.9269231 375.086652,72.8596154 L375.086652,81.3057692 L371.556391,81.3057692 L371.556391,72.7434808 C371.556391,70.5134615 371.203364,69.575 370.497312,68.7538462 C369.673585,67.6980769 368.380332,67.1115385 366.967051,67.1115385 C364.731219,67.1115385 363.08494,68.2846154 362.024685,69.575 L362.024685,81.4230769 L358.494424,81.4230769 L358.494424,64.0615385 L361.908186,64.0615385 L361.908186,65.7038462 L362.024685,65.7038462 Z M340.960793,70.5134615 L350.374823,70.5134615 C349.904121,68.2846154 347.90364,66.7596154 345.785483,66.7596154 C343.549651,66.7596154 341.54917,68.2846154 340.960793,70.5134615 Z M340.607767,73.4461538 C340.843117,76.3788462 343.196625,78.6088654 346.138509,78.6088654 C348.727368,78.6088654 350.140649,77.3173077 351.080875,76.2627115 L353.316707,78.3730769 C352.022278,80.0153846 349.552272,81.5415577 346.022011,81.5415577 C340.960793,81.5415577 337.077505,77.7865385 337.077505,72.625 C337.077505,67.4646346 340.607767,63.7096154 345.433634,63.7096154 C350.257147,63.7096154 353.67091,67.5807692 353.67091,72.625 L353.67091,73.3300192 L340.607767,73.3300192 L340.607767,73.4461538 Z M329.07558,69.4576923 C328.016501,68.0511731 326.251371,66.9942308 324.133214,66.9942308 C320.838303,66.9942308 318.602471,69.6923077 318.602471,72.625 C318.602471,75.6761731 320.955979,78.2557692 324.368565,78.2557692 C326.133695,78.2557692 327.898826,77.4357885 329.07558,75.7923077 L329.07558,69.4576923 Z M323.780188,81.6576923 C322.250408,81.6576923 320.602953,81.1884615 319.426199,80.4846154 C316.837341,78.9596154 315.07221,76.1442308 315.07221,72.625 C315.07221,69.22425 316.955016,66.2903846 319.545051,64.7653846 C320.721805,64.0615385 322.132732,63.7096154 323.780188,63.7096154 C325.780669,63.7096154 327.5458,64.2961538 329.193255,65.7038462 L329.193255,64.0615385 L332.605841,64.0615385 L332.605841,80.4846154 C332.605841,83.0653846 332.252815,84.7076923 331.546763,86.1153846 C330.135835,88.8134615 327.5458,90.3396346 324.133214,90.3396346 C319.66155,90.3396346 316.837341,88.1096154 315.778262,86.35 L318.368297,84.0038462 C319.66155,85.6473269 321.191329,87.0538462 324.015538,87.0538462 C325.898345,87.0538462 327.310449,86.35 328.251852,85.0607885 C328.840229,84.1211538 329.193255,82.8307692 329.193255,80.6019231 L329.193255,79.6634615 C327.663475,80.9550192 325.898345,81.6576923 323.780188,81.6576923 Z M297.538579,71.2173077 L305.424006,71.2173077 L301.421866,61.7153846 L297.538579,71.2173077 Z M306.952609,74.7365385 L296.126474,74.7365385 L293.419941,81.3057692 L289.654329,81.3057692 L300.245112,55.7326923 L302.833971,55.7326923 L313.424755,81.3057692 L309.659143,81.3057692 L306.952609,74.7365385 Z M132.910727,124.240385 L143.26616,124.240385 L149.267605,56.2019231 L164.447728,56.2019231 L170.449172,124.240385 L205.045733,124.240385 L210.929502,56.2019231 L226.227301,56.2019231 L232.11107,124.240385 L242.348827,124.240385 L235.523655,47.0519231 L201.515472,47.0519231 L195.514027,115.090385 L179.745527,115.090385 L173.744083,47.0519231 L139.735899,47.0519231 L132.910727,124.240385 Z M15,124.240385 L40.8885828,124.240385 L40.8885828,115.090385 L24.7670562,115.090385 L24.7670562,4 L15,4 L15,124.240385 Z M83.7224198,54.4423077 C97.1374127,54.4423077 107.728197,64.0615385 109.728678,77.6692308 L56.892434,77.6692308 C59.716643,64.2961538 69.9544008,54.4423077 83.7224198,54.4423077 Z M117.142227,111.688462 L110.317055,105.236538 C104.197935,112.744231 95.7253082,116.733865 85.4875505,116.733865 C67.6008933,116.733865 56.892434,102.890385 56.3040571,86.35 L119.61341,86.35 C119.731085,84.825 119.731085,83.6519231 119.731085,82.9480769 C119.731085,61.4807692 104.433286,45.175 83.7224198,45.175 C61.8347998,45.2923077 46.6546763,63.475 46.6546763,85.6473269 C46.6546763,109.695404 63.8352812,126 85.6052259,126 C100.314648,126 111.376133,119.080019 117.142227,111.688462 Z" id="Fill-1" fill="#FFFFFF"></path>
    </g>
</svg>